<?xml version="1.0" encoding="iso-8859-1"?>
<!-- Generator: Adobe Illustrator 19.0.0, SVG Export Plug-In . SVG Version: 6.00 Build 0)  -->
<svg version="1.1" id="Layer_1" xmlns="http://www.w3.org/2000/svg" xmlns:xlink="http://www.w3.org/1999/xlink" x="0px" y="0px"
	 viewBox="0 0 512 512" style="enable-background:new 0 0 512 512;" xml:space="preserve">
<circle style="fill:#34495E;" cx="256" cy="256" r="256"/>
<path style="fill:#203549;" d="M511.98,256.829l-128.44-128.445c-5.934-5.937-14.136-9.608-23.199-9.608
	c-4.662,0-9.052,0.952-13.043,2.721c-0.044,0-0.09,0-0.133,0.044c-0.906,0.366-1.812,0.814-2.67,1.272
	c-0.182,0.131-0.412,0.269-0.589,0.407c-0.681,0.361-1.362,0.768-2.043,1.224c-0.407,0.269-0.773,0.586-1.129,0.855
	c-0.451,0.32-0.906,0.637-1.316,1.001c-0.819,0.632-1.587,1.354-2.309,2.084l-4.214,4.211l-1.398-1.362
	c-2.268-2.266-5.261-3.533-8.476-3.487c-3.167,0-6.203,1.224-8.422,3.533l-45.791,46.157c-0.358,0.358-0.681,0.814-0.858,1.313
	c-0.049,0.133-0.049,0.269-0.09,0.407c-0.092,0.358-0.182,0.678-0.182,1.039c0,0.225,0.09,0.494,0.133,0.724
	c0.051,0.228,0.051,0.502,0.141,0.681c0.136,0.361,0.361,0.678,0.586,0.993c0.097,0.092,0.097,0.182,0.182,0.269
	c0.049,0.092,0.09,0.141,0.141,0.182c0.044,0.051,0.082,0.095,0.182,0.138l6.651,6.659L219.63,245.87l4.073,4.076l-3.666,4.754
	l-27.587,36.001l1.539,1.595l-52.721,30.208c0.366,22.915-6.205,45.921-19.699,65.58c-0.228,0.051-0.407,0.136-0.502,0.266
	c-0.177,0.189-0.271,0.458-0.177,0.724c-1.137,0.049-2.04,0.906-2.04,2.043c0,0.266,0.046,0.499,0.182,0.722l1.175,1.18
	L238.505,511.34c5.788,0.386,11.61,0.66,17.495,0.66C397.107,512,511.529,397.824,511.98,256.829z"/>
<path style="fill:#5D6D7E;" d="M267.891,393.219h-146.97c-1.142,0-2.074-0.919-2.074-2.074c0-1.144,0.932-2.079,2.074-2.079h146.97
	c1.152,0,2.081,0.932,2.081,2.079C269.97,392.297,269.043,393.219,267.891,393.219z"/>
<path style="fill:#F2F9FF;" d="M189.399,370.68l30.269-52.716l-25.692-25.677l-52.713,30.216
	c0.356,22.902-6.205,45.944-19.732,65.595c-0.2,0.051-0.379,0.148-0.484,0.253c-0.294,0.282-0.294,0.814,0,1.111
	c0.294,0.287,0.771,0.279,1.075,0.008l44.081-46.129c-0.433-1.334-0.108-2.88,0.937-3.912c1.495-1.518,3.863-1.49,5.368,0
	c1.472,1.446,1.472,3.912,0.036,5.399c-1.057,1.068-2.604,1.362-3.937,0.901l-46.139,44.091c-0.266,0.266-0.292,0.773,0,1.124
	c0.328,0.261,0.824,0.271,1.121,0c0.161-0.161,0.189-0.353,0.251-0.527C143.468,376.868,166.461,370.294,189.399,370.68z"/>
<path style="fill:#B8D1E6;" d="M123.843,390.415c-0.059,0.141-0.087,0.366-0.218,0.499c-0.328,0.3-0.829,0.271-1.152,0.005
	c-0.323-0.33-0.266-0.835,0-1.103l46.139-44.091c1.334,0.463,2.852,0.125,3.927-0.934c1.446-1.452,1.446-3.917-0.026-5.366
	l34.348-34.307l12.754,12.81l-30.213,52.749C166.533,370.299,143.468,376.868,123.843,390.415z"/>
<g>
	<path style="fill:#FF8E31;" d="M383.524,128.384L383.524,128.384L383.524,128.384z"/>
	<path style="fill:#FF8E31;" d="M393.147,151.611c-0.008-9.07-3.681-17.28-9.623-23.227c-5.939-5.926-14.141-9.603-23.209-9.603
		s-17.27,3.676-23.219,9.603L219.62,245.87l46.41,46.418l117.847-117.816C389.824,168.532,393.139,160.673,393.147,151.611z"/>
</g>
<g>
	<path style="fill:#FFCD59;" d="M264.998,214.564c-1.551-1.551-1.551-4.081,0-5.622l53.107-53.112c1.551-1.562,4.076-1.562,5.632,0
		c1.546,1.549,1.546,4.07,0,5.619l-53.115,53.117C269.076,216.113,266.555,216.113,264.998,214.564z"/>
	<path style="fill:#FFCD59;" d="M347.73,133.75c-0.317-0.32-0.586-0.689-0.781-1.111c-0.942-1.992-0.092-4.365,1.887-5.302
		c3.633-1.723,7.496-2.588,11.477-2.588c7.171,0,13.921,2.79,18.99,7.862c1.559,1.551,1.559,4.065,0.008,5.624
		c-1.559,1.556-4.081,1.556-5.632,0.008c-3.569-3.574-8.315-5.537-13.366-5.537c-2.796,0-5.499,0.607-8.069,1.823
		C350.684,135.273,348.887,134.904,347.73,133.75z"/>
</g>
<polygon style="fill:#FF9D4D;" points="221.251,319.524 192.428,290.729 223.685,249.951 262.006,288.259 "/>
<rect x="320.409" y="154.658" transform="matrix(-0.7071 -0.7071 0.7071 -0.7071 490.8427 520.5866)" style="fill:#B8D1E6;" width="65.658" height="7.956"/>
<polygon style="fill:#F28124;" points="257.224,291.93 262.006,288.259 223.685,249.951 220.027,254.73 "/>
<path style="fill:#F2F9FF;" d="M332.874,132.618l-1.377-1.39c-2.26-2.258-5.274-3.497-8.471-3.492
	c-3.203,0.015-6.2,1.265-8.456,3.533l-45.755,46.18c-1.546,1.549-1.533,4.055,0.013,5.606c0,0.015,0.008,0.015,0.015,0.015
	c1.559,1.549,4.073,1.541,5.624-0.028l45.757-46.167c0.742-0.763,1.756-1.183,2.816-1.183c1.068,0,2.081,0.415,2.829,1.167
	l1.377,1.385L332.874,132.618z"/>
<g>
</g>
<g>
</g>
<g>
</g>
<g>
</g>
<g>
</g>
<g>
</g>
<g>
</g>
<g>
</g>
<g>
</g>
<g>
</g>
<g>
</g>
<g>
</g>
<g>
</g>
<g>
</g>
<g>
</g>
</svg>
